{"title":"Chain Letter-AC3-XviD-DVDRip 2010 TBS","uid":6174095,"size":1462938181,"categoryP":"video","categoryS":"movies","magnet":"?xt=urn:btih:0018c96282c12669913762ba9c288fbd6bd22ee7&amp;dn=Chain+Letter-AC3-XviD-DVDRip+2010+TBS&amp;tr=udp%3A%2F%2Ftracker.openbittorrent.com%3A80&amp;tr=udp%3A%2F%2Fopen.demonii.com%3A1337&amp;tr=udp%3A%2F%2Ftracker.coppersurfer.tk%3A6969&amp;tr=udp%3A%2F%2Fexodus.desync.com%3A6969","seeders":0,"leechers":0,"uploader":"FatFreddy30","files":-1,"time":1297701286,"description":"The film follows a group of local teens as they fall victim to a chain-wielding killer dubbed &quot;Chain Man&quot; after they fail to forward some chain mail..\n &lt;a href=&quot;\nhttp://www.imdb.com/title/tt1148200/&quot; rel=&quot;nofollow&quot; target=&quot;_NEW&quot;&gt;\nhttp://www.imdb.com/title/tt1148200/&lt;/a&gt;\n\nSubs: Dutch, English (srt).\n\n\nDe 'Chain Man' is een gestoorde moordenaar die mensen ombrengt met een ketting als zij zijn opdracht, het versturen van kettingberichten via de mail, weigeren. Hij heeft het voorzien op een groepje studenten, maar krijgt dan de politie op zijn hielen..\n &lt;a href=&quot;\nhttp://www.moviemeter.nl/film/61390&quot; rel=&quot;nofollow&quot; target=&quot;_NEW&quot;&gt;\nhttp://www.moviemeter.nl/film/61390&lt;/a&gt;\n\nOndertitels: Engels, Nederlands (srt).\n\nGeneral\nComplete name                    : Chain Letter-AC3-XviD-DVDRip 2010 TBS\\Chain Letter-AC3-XviD-DVDRip 2010 TBS.avi\nFormat                           : AVI\nFormat/Info                      : Audio Video Interleave\nFile size                        : 1.36 GiB\nDuration                         : 1h 29mn\nOverall bit rate                 : 2 190 Kbps\nWriting application              : VirtualDubMod 1.5.4.1 (build 2178/release)\nWriting library                  : VirtualDubMod build 2178/release\n\nVideo\nID                               : 0\nFormat                           : MPEG-4 Visual\nFormat profile                   : Simple@L3\nFormat settings, BVOP            : No\nFormat settings, QPel            : No\nFormat settings, GMC             : No warppoints\nFormat settings, Matrix          : Default (H.263)\nCodec ID                         : XVID\nCodec ID/Hint                    : XviD\nDuration                         : 1h 29mn\nBit rate                         : 1 861 Kbps\nWidth                            : 720 pixels\nHeight                           : 400 pixels\nDisplay aspect ratio             : 16:9\nFrame rate                       : 23.976 fps\nResolution                       : 8 bits\nColorimetry                      : 4:2:0\nScan type                        : Progressive\nBits/(Pixel*Frame)               : 0.269\nStream size                      : 1.16 GiB (85%)\nWriting library                  : XviD 1.1.2 (UTC 2006-11-01)\n\nAudio\nID                               : 1\nFormat                           : AC-3\nFormat/Info                      : Audio Coding 3\nCodec ID                         : 2000\nDuration                         : 1h 29mn\nBit rate mode                    : Constant\nBit rate                         : 320 Kbps\nChannel(s)                       : 6 channels\nChannel positions                : Front: L C R, Surround: L R, LFE\nSampling rate                    : 48.0 KHz\nStream size                      : 204 MiB (15%)\nAlignment                        : Split accross interleaves\nInterleave, duration             : 42 ms (1.00 video frame)\nInterleave, preload duration     : 500 ms\n\nBlackbeard  TBS.","torrent":{"xt":"urn:btih:0018c96282c12669913762ba9c288fbd6bd22ee7","amp;dn":"Chain+Letter-AC3-XviD-DVDRip+2010+TBS","amp;tr":["udp%3A%2F%2Ftracker.openbittorrent.com%3A80","udp%3A%2F%2Fopen.demonii.com%3A1337","udp%3A%2F%2Ftracker.coppersurfer.tk%3A6969","udp%3A%2F%2Fexodus.desync.com%3A6969"],"infoHash":"0018c96282c12669913762ba9c288fbd6bd22ee7","infoHashBuffer":{"type":"Buffer","data":[0,24,201,98,130,193,38,105,145,55,98,186,156,40,143,189,107,210,46,231]},"announce":[],"urlList":[]}}